<?xml version="1.0" encoding="utf-8"?>
<!-- Generator: Adobe Illustrator 26.5.0, SVG Export Plug-In . SVG Version: 6.00 Build 0)  -->
<svg version="1.1" id="Capa_1" xmlns="http://www.w3.org/2000/svg" xmlns:xlink="http://www.w3.org/1999/xlink" x="0px" y="0px"
	 viewBox="0 0 1920 648" style="enable-background:new 0 0 1920 648;" xml:space="preserve">
<style type="text/css">
	.st0{fill:#3067AF;}
	.st1{fill:#E73435;}
	.st2{fill:#FFFFFF;}
	.st3{fill:#3067AF;stroke:#3167B0;stroke-width:3;stroke-miterlimit:10;}
</style>
<g>
	<path id="Trazado_594" class="st0" d="M835.23,36.25c-11.46,0.03-20.74,9.31-20.78,20.78v294.31c0.04,11.46,9.32,20.74,20.78,20.78
		H966.8V36.25H835.23z"/>
	<path id="Trazado_595" class="st1" d="M966.81,36.25h159.27c11.46,0.03,20.75,9.31,20.78,20.78v294.31
		c-0.04,11.46-9.32,20.74-20.78,20.78H966.81V36.25z"/>
	<circle id="Elipse_46" class="st2" cx="925.27" cy="237.08" r="32.9"/>
	<circle id="Elipse_47" class="st2" cx="1034.33" cy="204.19" r="38.09"/>
	<path id="Trazado_596" class="st2" d="M939.11,278.63h-27.7c-22.92,0.07-41.48,18.63-41.55,41.55v51.94h110.8v-51.94
		C980.59,297.26,962.03,278.7,939.11,278.63z"/>
	<path id="Trazado_597" class="st2" d="M1046.1,248.51h-27.01c-28.84,0.08-52.21,23.44-52.28,52.28v71.31h131.58v-71.33
		C1098.3,271.94,1074.94,248.58,1046.1,248.51z"/>
	<circle id="Elipse_48" class="st0" cx="940.15" cy="317.75" r="16.62"/>
	<circle id="Elipse_49" class="st1" cx="1006.62" cy="294.21" r="20.78"/>
	<path id="Trazado_598" class="st0" d="M948.46,340.96h-16.62c-11.09,0.01-20.07,8.99-20.08,20.08v11.08h57.13v-11.08
		C968.59,349.94,959.56,341.07,948.46,340.96z"/>
	<path id="Trazado_599" class="st1" d="M1012.51,321.9h-13.15c-17.75-0.04-32.17,14.32-32.2,32.07c0,0.04,0,0.08,0,0.12v18.01h77.9
		V354.1C1044.68,336.34,1030.27,322.09,1012.51,321.9z"/>
	<polygon class="st2" points="926.64,134.94 898.94,126.97 876.43,145.32 875.39,116.59 851.16,101.01 878.17,90.97 885.42,62.92 
		903.43,85.77 932.16,84.04 915.88,107.94 	"/>
</g>
<g id="Grupo_925" transform="translate(49.117 10.51)">
	<g id="Grupo_924">
		<path id="Trazado_600" class="st0" d="M1233.75,176c-40.77,0-62.45-26.89-62.45-75.46c0-45.1,21.69-73.73,62.45-73.73
			c17.29-0.65,34.42,3.56,49.45,12.15l-10.43,22.56c-10.45-7.16-22.9-10.81-35.56-10.43c-24.34,0-36.43,17.39-36.43,48.58
			c0,33.84,12.15,50.32,35.56,50.32c13.73-0.47,27.01-5,38.17-13.02l8.67,22.56C1268.98,170.33,1251.6,176.12,1233.75,176z"/>
		<path id="Trazado_601" class="st0" d="M1303.14,173.41V25.04h27.76v39.09c-0.16,5.58-1.03,11.12-2.6,16.48
			c7.39-9.23,18.53-14.65,30.36-14.76c30.36,0,38.17,15.61,38.17,42.51v65.06h-28.62v-62.45c0-14.74-6.07-23.43-19.09-23.43
			c-6.81,0.15-13.43,2.26-19.08,6.07v79.81L1303.14,173.41z"/>
		<path id="Trazado_602" class="st0" d="M1428.05,173.41V88.39l-12.14-2.61V68.4h39.9v104.96L1428.05,173.41z M1427.18,25.04h28.63
			v25.15h-28.61L1427.18,25.04z"/>
		<path id="Trazado_603" class="st0" d="M1481.83,145.66V25.11h27.76v118.84c0,8.67,5.2,10.43,17.39,10.43v19.87
			c-5.14,1.07-10.37,1.65-15.61,1.73C1489.64,176.01,1481.83,163.87,1481.83,145.66z"/>
		<path id="Trazado_604" class="st0" d="M1569.44,128.3c-1.22,13.2,8.5,24.89,21.7,26.11c1.73,0.16,3.47,0.13,5.19-0.09
			c10.89-0.73,21.52-3.68,31.23-8.67l5.22,19.95c-12.34,6.46-25.99,10.02-39.91,10.43c-32.1,0-52.05-19.95-52.05-54.64
			c0-32.1,15.61-54.64,49.44-54.64c32.1,0,44.24,23.41,44.24,50.32v11.28L1569.44,128.3z M1588.52,86.67
			c-13.91,0-19.95,13.01-19.95,25.15h38.17C1607.61,97.95,1603.27,86.67,1588.52,86.67z"/>
		<path id="Trazado_605" class="st0" d="M1181.71,359.9h-15.61l39.04-144.89h35.56l36.43,144.89h-18.21l-8.67-37.3h-59.85
			L1181.71,359.9z M1216.4,228.92l-21.69,79.8h52.91l-19.08-79.8H1216.4z"/>
		<path id="Trazado_606" class="st0" d="M1330.9,362.51c-14.74,0-26.89-7.81-26.89-32.09V267.1h-15.61v-12.17h15.61v-19.08
			l16.48-5.2v24.34h30.37v12.15h-30.36v65.05c0,11.28,4.34,16.48,13.91,16.48c5.72-0.4,11.31-1.87,16.48-4.34l3.48,12.14
			C1347.1,360.23,1339.08,362.3,1330.9,362.51z"/>
		<path id="Trazado_607" class="st0" d="M1383.81,359.96v-91.94l-11.28-2.61v-10.43h27.76v104.98H1383.81z M1382.94,213.36h17.39
			v17.39h-17.39V213.36z"/>
		<path id="Trazado_608" class="st0" d="M1441.06,312.19c0,26.02,13.02,37.3,32.97,37.3c11.71-0.54,23.08-4.14,32.97-10.43
			l4.34,11.28c-11.5,7.06-24.67,10.95-38.16,11.28c-28.63,0-47.71-19.09-47.71-55.51c0-32.97,16.48-53.78,45.11-53.78
			c29.49,0,42.49,24.28,42.49,50.31v9.54L1441.06,312.19z M1469.69,265.35c-19.96,0-27.82,17.39-27.82,35.56h54.65
			C1496.59,282.7,1490.51,265.35,1469.69,265.35L1469.69,265.35z"/>
		<path id="Trazado_609" class="st0" d="M1603.26,359.9v-63.32c0-19.95-6.07-31.23-24.34-31.23c-9.91,0.57-19.22,4.91-26.02,12.14
			v82.4h-16.48V254.93h11.28l3.48,12.15c8.59-9.1,20.45-14.41,32.97-14.74c24.34,0,35.56,14.74,35.56,40.77v66.79L1603.26,359.9z"/>
		<path id="Trazado_610" class="st0" d="M1716.04,347.76c-7.53,9.05-18.59,14.42-30.36,14.74c-25.15,0-42.51-18.21-42.51-54.65
			c0-32.09,15.61-54.64,44.24-54.64c9.97-0.36,19.76,2.7,27.75,8.67c-0.75-5.76-1.04-11.58-0.87-17.39v-32.95h16.48v148.37h-12.14
			L1716.04,347.76z M1714.3,272.3c-7.43-5.03-16.18-7.75-25.15-7.8c-19.95,0-29.5,15.61-29.5,42.51c0,26.02,8.67,42.51,27.76,42.51
			c10.37-0.45,20.09-5.15,26.88-13.01L1714.3,272.3z"/>
		<path id="Trazado_611" class="st0" d="M1772.41,312.19c0,26.02,13,37.3,32.97,37.3c11.71-0.55,23.07-4.14,32.95-10.43l4.34,11.28
			c-11.51,7.06-24.67,10.95-38.17,11.28c-28.63,0-47.71-19.09-47.71-55.51c0-32.97,16.48-53.78,45.1-53.78
			c29.5,0,42.51,24.28,42.51,50.31v9.54L1772.41,312.19z M1800.16,265.35c-19.95,0-27.75,17.39-27.75,35.56h54.64
			c0.01-18.21-6.06-35.56-26.88-35.56L1800.16,265.35z"/>
	</g>
</g>
<g>
	<path class="st0" d="M37.53,369.62V31.84h65.55v337.78H37.53z"/>
	<path class="st0" d="M257.22,252.02h-37.03v117.6h-65.55V31.84h102.58c69.06,0,128.61,33.03,128.61,105.59
		C385.82,202.48,336.78,252.02,257.22,252.02z M255.71,87.38h-35.53v113.09h35.53c38.53,0,60.55-23.52,60.55-60.55
		C316.26,105.4,293.25,87.38,255.71,87.38z"/>
	<path class="st0" d="M505.42,374.62c-45.04,0-83.07-16.01-110.09-36.03l25.02-51.54c19.52,17.01,55.04,32.53,86.07,32.53
		c31.03,0,52.04-19.02,52.04-44.54c0-71.56-156.13-36.03-156.13-155.13c0-51.04,40.03-93.08,119.1-93.08
		c39.53,0,73.06,8.51,100.58,23.02L600,102.4c-18.51-11.01-48.54-18.52-79.57-18.52c-30.52,0-50.54,10.01-50.54,35.03
		c0,60.55,157.13,37.03,157.13,152.13C627.02,324.58,582.49,374.62,505.42,374.62z"/>
</g>
<g>
	<path class="st3" d="M42.42,619.4v-94.93h7.03v94.93H42.42z"/>
	<path class="st3" d="M122.16,619.4l-39.52-88.74h-0.7l0.14,88.74h-6.89v-94.93h12.38l39.8,89.03h0.84l-0.14-89.03h7.31v94.93
		H122.16z"/>
	<path class="st3" d="M181.09,620.81c-9.7,0-20.53-3.94-27.99-9.42l3.09-5.77c5.91,4.92,16.31,9.14,25.6,9.14
		c13.64,0,21.52-8.16,21.52-20.25c0-27.28-48.66-17.44-48.66-48.66c0-12.24,10.27-22.78,28.41-22.78c12.1,0,21.38,3.66,26.3,6.89
		l-2.53,5.63c-3.52-2.39-12.94-6.33-23.49-6.33c-15.19,0-21.52,7.74-21.52,17.02c0,24.61,48.8,16.03,48.8,48.24
		C210.62,609.28,199.93,620.81,181.09,620.81z"/>
	<path class="st3" d="M251.27,530.52v88.88h-7.03v-88.88h-24.47v-6.05h58.51v6.05H251.27z"/>
	<path class="st3" d="M298.24,619.4v-94.93h7.03v94.93H298.24z"/>
	<path class="st3" d="M356.74,530.52v88.88h-7.03v-88.88h-24.47v-6.05h58.51v6.05H356.74z"/>
	<path class="st3" d="M460.39,584.38c0,19.97-9.28,36.43-30.24,36.43c-21.52,0-30.66-16.46-30.66-36.43v-59.91h7.03v58.65
		c0,17.86,5.48,31.5,23.63,31.5c17.58,0,23.06-13.64,23.06-31.5v-58.65h7.17V584.38z"/>
	<path class="st3" d="M507.64,530.52v88.88h-7.03v-88.88h-24.47v-6.05h58.51v6.05H507.64z"/>
	<path class="st3" d="M574.87,620.81c-25.32,0-35.58-22.64-35.58-49.79c0-25.17,9.7-47.96,35.58-47.96
		c26.58,0,35.86,22.5,35.86,47.96C610.73,596.2,600.47,620.81,574.87,620.81z M574.87,528.83c-21.66,0-28.41,22.22-28.41,42.05
		c0,21.52,5.34,43.88,28.41,43.88c22.5,0,28.55-21.8,28.55-43.88C603.42,550.77,596.95,528.83,574.87,528.83z"/>
	<path class="st3" d="M691.17,620.81c-11.95,0-21.94-2.53-29.11-4.78v-91.56h24.33c25.74,0,41.07,11.39,41.07,46.55
		C727.46,603.09,713.67,620.81,691.17,620.81z M685.69,530.1h-16.6v81.15c4.5,1.69,12.94,3.52,22.22,3.52
		c18.99,0,28.83-13.36,28.83-44.02C720.14,541.49,709.46,530.1,685.69,530.1z"/>
	<path class="st3" d="M747.42,619.4v-94.93h49.51v6.05h-42.47v37.55h34.18l-1.41,6.19h-32.77v39.24h42.47v5.91H747.42z"/>
	<path class="st3" d="M870.34,581.15h-16.03v38.25h-6.89v-94.93h22.92c18.14,0,33.05,8.58,33.05,27.57
		C903.39,572.43,888.48,581.15,870.34,581.15z M869.5,530.38h-15.19v44.72h15.19c16.31,0,26.44-6.61,26.44-23.06
		C895.94,536.71,884.68,530.38,869.5,530.38z"/>
	<path class="st3" d="M925.33,579.46v39.94h-6.89v-95.07h22.92c18.28,0,32.91,7.31,32.91,26.58c0,14.21-8.44,22.36-19.83,26.58
		l22.22,41.91h-8.3l-20.96-40.22c-1.69,0.14-3.66,0.28-5.48,0.28H925.33z M940.52,530.24h-15.19v43.04h15.05
		c16.31,0,26.44-7.31,26.44-21.94C966.82,536,956.83,530.24,940.52,530.24z"/>
	<path class="st3" d="M992.41,619.4v-94.93h49.51v6.05h-42.47v37.55h34.18l-1.41,6.19h-32.77v39.24h42.47v5.91H992.41z"/>
	<path class="st3" d="M1091,619.4h-12.24l-27.42-94.93h7.17l26.02,89.03h0.98l26.02-89.03h7.31L1091,619.4z"/>
	<path class="st3" d="M1136,619.4v-94.93h7.03v94.93H1136z"/>
	<path class="st3" d="M1192.82,620.81c-9.7,0-20.53-3.94-27.99-9.42l3.09-5.77c5.91,4.92,16.31,9.14,25.6,9.14
		c13.64,0,21.52-8.16,21.52-20.25c0-27.28-48.66-17.44-48.66-48.66c0-12.24,10.27-22.78,28.41-22.78c12.09,0,21.38,3.66,26.3,6.89
		l-2.53,5.63c-3.52-2.39-12.94-6.33-23.49-6.33c-15.19,0-21.52,7.74-21.52,17.02c0,24.61,48.8,16.03,48.8,48.24
		C1222.35,609.28,1211.66,620.81,1192.82,620.81z"/>
	<path class="st3" d="M1244.15,619.4v-94.93h7.03v94.93H1244.15z"/>
	<path class="st3" d="M1310.39,620.81c-25.32,0-35.58-22.64-35.58-49.79c0-25.17,9.7-47.96,35.58-47.96
		c26.58,0,35.86,22.5,35.86,47.96C1346.25,596.2,1335.98,620.81,1310.39,620.81z M1310.39,528.83c-21.66,0-28.41,22.22-28.41,42.05
		c0,21.52,5.34,43.88,28.41,43.88c22.5,0,28.55-21.8,28.55-43.88C1338.94,550.77,1332.47,528.83,1310.39,528.83z M1294.92,517.72
		l-0.42-4.22l32.07-4.08l0.28,5.34L1294.92,517.72z"/>
	<path class="st3" d="M1412.77,619.4l-39.52-88.74h-0.7l0.14,88.74h-6.89v-94.93h12.38l39.8,89.03h0.84l-0.14-89.03h7.31v94.93
		H1412.77z"/>
	<path class="st3" d="M1504.32,620.81c-9.7,0-20.53-3.94-27.99-9.42l3.09-5.77c5.91,4.92,16.31,9.14,25.6,9.14
		c13.64,0,21.52-8.16,21.52-20.25c0-27.28-48.66-17.44-48.66-48.66c0-12.24,10.27-22.78,28.41-22.78c12.09,0,21.38,3.66,26.3,6.89
		l-2.53,5.63c-3.52-2.39-12.94-6.33-23.49-6.33c-15.19,0-21.52,7.74-21.52,17.02c0,24.61,48.8,16.03,48.8,48.24
		C1533.85,609.28,1523.17,620.81,1504.32,620.81z"/>
	<path class="st3" d="M1585.04,620.81c-25.32,0-35.58-22.64-35.58-49.79c0-25.17,9.7-47.96,35.58-47.96
		c26.58,0,35.86,22.5,35.86,47.96C1620.91,596.2,1610.64,620.81,1585.04,620.81z M1585.04,528.83c-21.66,0-28.41,22.22-28.41,42.05
		c0,21.52,5.34,43.88,28.41,43.88c22.5,0,28.55-21.8,28.55-43.88C1613.59,550.77,1607.12,528.83,1585.04,528.83z"/>
	<path class="st3" d="M1676.6,620.81c-25.46,0-37.69-20.67-37.69-49.5c0-31.22,15.33-48.24,38.11-48.24
		c10.83,0,21.38,2.81,27.85,7.59l-2.95,5.63c-5.77-4.5-15.89-7.03-25.03-7.03c-21.1,0-30.8,17.58-30.8,41.63
		c0,25.74,10.27,43.74,30.52,43.74c10.97,0,19.97-3.94,26.72-9.14l2.25,5.63C1698.26,616.17,1688.83,620.81,1676.6,620.81z"/>
	<path class="st3" d="M1725.68,619.4v-94.93h7.03v94.93H1725.68z"/>
	<path class="st3" d="M1758.02,619.4h-6.75l26.16-94.93h19.41l23.77,94.93h-7.31l-6.33-25.74h-42.05L1758.02,619.4z M1782.35,530.24
		l-15.75,57.1h38.82l-13.92-57.1H1782.35z"/>
	<path class="st3" d="M1837.06,619.4v-94.93h7.03v89.03h42.47v5.91H1837.06z"/>
</g>
<rect x="37.53" y="416.77" class="st0" width="924.5" height="31.26"/>
<polyline class="st1" points="1889.56,448.03 962.03,448.03 962.03,416.77 1889.56,416.77 "/>
</svg>
